# xmcd CD database file
#
# Track frame offsets:
#	150
#	14785
#	26250
#	39865
#	49575
#	64110
#	77300
#	89665
#	103680
#	114640
#	128850
#	143025
#	158485
#	172445
#	186835
#	202350
#	209025
#	215075
#	220745
#	224375
#	227460
#	231575
#	238155
#
# Disc length: 3431 seconds
#
# Revision: 3
# Processed by: cddbd v1.5.1PL0 Copyright (c) Steve Scherf et al.
# Submitted via: CDex 1.51
#
DISCID=5d0d6517
DTITLE=Leadbelly - The Tradition Masters
DYEAR=1900
DGENRE=Blues
TTITLE0=New Orleans (The Rising Sun Blues)
TTITLE1=Good Night Irene
TTITLE2=Where Did You Sleep Last Night
TTITLE3=How Long
TTITLE4=John Hardy
TTITLE5=When I Was a Cowboy (Western Plains)
TTITLE6=Pretty Flower in Your Backyard
TTITLE7=Roberta
TTITLE8=Pretty Flower in Your Backyard
TTITLE9=Yellow Gal
TTITLE10=Looky, Looky, Yonder - Black Betty - Yellow Women's Doorbells
TTITLE11=Po' Howard - Green Corn
TTITLE12=De Kalb Blues
TTITLE13=The Gallis Pole
TTITLE14=The Bourgeois Blues
TTITLE15=Noted Rider (She's No Good Rider)
TTITLE16=Big Fat Woman
TTITLE17=Borrow Love and Go
TTITLE18=Bring Me L'il' Water, Silvy
TTITLE19=Julie Ann Johnson
TTITLE20=Line 'Em
TTITLE21=Whoa, Back, Buck!
TTITLE22=John Hardy
EXTD=
EXTT0=
EXTT1=
EXTT2=
EXTT3=
EXTT4=
EXTT5=
EXTT6=
EXTT7=
EXTT8=
EXTT9=
EXTT10=
EXTT11=
EXTT12=
EXTT13=
EXTT14=
EXTT15=
EXTT16=
EXTT17=
EXTT18=
EXTT19=
EXTT20=
EXTT21=
EXTT22=
PLAYORDER=
